<svg xmlns="http://www.w3.org/2000/svg" viewBox="0 0 512 512" role="img">
  <defs>
    <linearGradient id="bg" x1="0" y1="0" x2="1" y2="1">
      <stop offset="0" stop-color="#fafdff" />
      <stop offset="1" stop-color="#e6f5fb" />
    </linearGradient>
  </defs>
  <rect width="512" height="512" rx="120" fill="url(#bg)" />
  <g stroke="#0f2238" stroke-width="22" stroke-linecap="round" stroke-linejoin="round" fill="#d4f4ff">
    <path d="M92 256c0-22 15-41 36-47l119-34 13-70c2-8 9-13 17-13h24c8 0 15 5 17 13l13 70 119 34c21 6 36 25 36 47s-15 41-36 47l-119 34-13 70c-2 8-9 13-17 13h-24c-8 0-15-5-17-13l-13-70-119-34c-21-6-36-25-36-47Z" />
    <path d="m210 238 138-44 26 28-150 52-14-36z" />
    <path d="m198 274 154 54-24 34-134-48 4-40z" />
    <path d="m152 220-56-12 22-38 50 18-16 32z" />
  </g>
  <g fill="#0f2238">
    <circle cx="230" cy="256" r="10" />
    <circle cx="262" cy="248" r="10" />
    <circle cx="294" cy="240" r="10" />
    <circle cx="326" cy="232" r="10" />
    <circle cx="358" cy="224" r="10" />
  </g>
</svg>
